# xmcd
#
# Track frame offsets:
# 150
# 7730
# 22615
# 39454
# 45972
# 63379
# 80657
# 98399
# 110667
# 120118
# 132699
# 143637
# 147955
# 179435
# 188715
# 201863
# 213694
# 226571
# 236833
# 250909
# 253820
# 267164
# 297907
# 312085
#
# Disc length: 4397 seconds
#
# Revision: 2
# Processed by: cddbd v1.4PL0 Copyright (c) Steve Scherf et al.
# Submitted via: Axialis_AX_CDPlayer 2.6
#
DISCID=46112b18
DTITLE=Nitty Gritty Dirt Band - Stars and Stripes Forever
DYEAR=1900
DGENRE=
TTITLE0=Jambalaya (On the Bayou)
TTITLE1=Dirt Band Interview
TTITLE2=Cosmic Cowboy (Part 1)
TTITLE3=Aluminum Record Award
TTITLE4=Fish Song
TTITLE5=Mr. Bojangles
TTITLE6=Vassar Clements Interview
TTITLE7=Listen to the Mockingbird
TTITLE8=The Sheik of Araby
TTITLE9=Resign Yourself to Me
TTITLE10=Dixie Hoedown
TTITLE11=Cripple Creek
TTITLE12=Mountain Whippoorwill (or, How Hillbilly Jim Won the Great Fiddler'
TTITLE12=s Prize)
TTITLE13=Honky Tonkin'
TTITLE14=House at Pooh Corner
TTITLE15=Buy for me the Rain
TTITLE16=Oh Boy
TTITLE17=Teardrops In My Eyes
TTITLE18=Glocoat Blues
TTITLE19=Stars And Stripes Forever
TTITLE20=Battle Of New Orleans
TTITLE21=It Came From The 50's
TTITLE22=My True Story
TTITLE23=Diggy Liggy Lo
EXTD=
EXTT0=
EXTT1=
EXTT2=
EXTT3=
EXTT4=
EXTT5=
EXTT6=
EXTT7=
EXTT8=
EXTT9=
EXTT10=
EXTT11=
EXTT12=
EXTT13=
EXTT14=
EXTT15=
EXTT16=
EXTT17=
EXTT18=
EXTT19=
EXTT20=
EXTT21=
EXTT22=
EXTT23=
PLAYORDER=
